<?xml version="1.0" encoding="UTF-8" standalone="no"?>
<svg
   viewBox="0 0 512 512"
   version="1.1"
   id="svg51"
   sodipodi:docname="envelope-solid.svg"
   inkscape:version="1.1.2 (0a00cf5, 2022-02-04)"
   xmlns:inkscape="http://www.inkscape.org/namespaces/inkscape"
   xmlns:sodipodi="http://sodipodi.sourceforge.net/DTD/sodipodi-0.dtd"
   xmlns="http://www.w3.org/2000/svg"
   xmlns:svg="http://www.w3.org/2000/svg">
  <defs
     id="defs55" />
  <sodipodi:namedview
     id="namedview53"
     pagecolor="#505050"
     bordercolor="#eeeeee"
     borderopacity="1"
     inkscape:pageshadow="0"
     inkscape:pageopacity="0"
     inkscape:pagecheckerboard="0"
     showgrid="false"
     inkscape:zoom="1.6289062"
     inkscape:cx="255.69305"
     inkscape:cy="256"
     inkscape:window-width="1920"
     inkscape:window-height="1043"
     inkscape:window-x="1920"
     inkscape:window-y="0"
     inkscape:window-maximized="1"
     inkscape:current-layer="svg51" />
  <!--! Font Awesome Pro 6.1.1 by @fontawesome - https://fontawesome.com License - https://fontawesome.com/license (Commercial License) Copyright 2022 Fonticons, Inc. -->
  <path
     d="M464 64C490.5 64 512 85.49 512 112C512 127.1 504.9 141.3 492.8 150.4L275.2 313.6C263.8 322.1 248.2 322.1 236.8 313.6L19.2 150.4C7.113 141.3 0 127.1 0 112C0 85.49 21.49 64 48 64H464zM217.6 339.2C240.4 356.3 271.6 356.3 294.4 339.2L512 176V384C512 419.3 483.3 448 448 448H64C28.65 448 0 419.3 0 384V176L217.6 339.2z"
     id="path49" />
  <path
     style="fill:#ffffff;stroke-width:0.613909"
     d="m 247.74835,318.56085 c -1.8372,-0.49385 -4.73792,-1.6601 -6.44604,-2.59165 C 236.63391,313.42318 19.63843,150.54066 15.120869,146.19145 2.737554,134.2696 -2.4393638,116.33343 1.8080111,100.06715 3.2034276,94.723083 7.746886,85.9173 11.374707,81.525708 17.430669,74.194778 27.326745,68.006587 36.945616,65.535769 40.89501,64.521281 53.290392,64.460432 256,64.460432 c 206.88418,0 215.02778,0.04208 219.16547,1.132593 14.01244,3.693058 25.85105,13.4208 31.86863,26.186351 3.42361,7.262762 4.32621,11.499334 4.31619,20.258994 -0.0104,9.14431 -0.93988,13.13786 -4.96492,21.33313 -5.18679,10.56069 -0.43079,6.74262 -122.07842,98.00344 -60.77697,45.59527 -111.88489,83.64906 -113.57314,84.56397 -6.39045,3.46316 -15.84423,4.54155 -22.98546,2.62194 z"
     id="path174" />
  <path
     style="fill:#ffffff;stroke-width:0.613909"
     d="M 55.865707,447.14535 C 32.062826,444.12185 11.48178,427.12086 3.5767709,403.95204 0.22853065,394.13867 0.31209341,397.23565 0.30942315,282.85851 c -0.001358,-58.16019 0.13545175,-105.7458 0.30402118,-105.7458 0.16856949,0 49.96425267,37.23245 110.65707567,82.73878 65.534,49.13615 112.09586,83.64076 114.64795,84.95971 9.66872,4.99692 19.0615,7.26554 30.08153,7.26554 11.02003,0 20.41281,-2.26862 30.08153,-7.26554 2.55209,-1.31895 49.11395,-35.82356 114.64795,-84.95971 60.69282,-45.50633 110.4885,-82.73878 110.65708,-82.73878 0.16856,0 0.30537,47.58561 0.30402,105.7458 -0.002,89.93867 -0.1369,106.57172 -0.9018,111.27099 -4.5638,28.03856 -27.13848,49.60629 -55.55925,53.08101 -6.54809,0.80057 -393.044711,0.7375 -399.363823,-0.0652 z"
     id="path213" />
</svg>
