<?xml version="1.0" encoding="UTF-8" standalone="no"?>
<svg
   width="16"
   height="16"
   fill="currentColor"
   class="bi bi-search"
   viewBox="0 0 16 16"
   version="1.1"
   id="svg59"
   sodipodi:docname="search.svg"
   inkscape:version="1.1.2 (0a00cf5, 2022-02-04)"
   xmlns:inkscape="http://www.inkscape.org/namespaces/inkscape"
   xmlns:sodipodi="http://sodipodi.sourceforge.net/DTD/sodipodi-0.dtd"
   xmlns="http://www.w3.org/2000/svg"
   xmlns:svg="http://www.w3.org/2000/svg">
  <defs
     id="defs63" />
  <sodipodi:namedview
     id="namedview61"
     pagecolor="#505050"
     bordercolor="#eeeeee"
     borderopacity="1"
     inkscape:pageshadow="0"
     inkscape:pageopacity="0"
     inkscape:pagecheckerboard="0"
     showgrid="false"
     inkscape:zoom="52.125"
     inkscape:cx="7.9904077"
     inkscape:cy="8"
     inkscape:window-width="1920"
     inkscape:window-height="1043"
     inkscape:window-x="1920"
     inkscape:window-y="0"
     inkscape:window-maximized="1"
     inkscape:current-layer="svg59" />
  <path
     d="M11.742 10.344a6.5 6.5 0 1 0-1.397 1.398h-.001c.03.04.062.078.098.115l3.85 3.85a1 1 0 0 0 1.415-1.414l-3.85-3.85a1.007 1.007 0 0 0-.115-.1zM12 6.5a5.5 5.5 0 1 1-11 0 5.5 5.5 0 0 1 11 0z"
     id="path57" />
  <path
     style="fill:#ffffff;stroke-width:0.0191847"
     d="m 14.839329,15.977154 c -0.09189,-0.01538 -0.240396,-0.06814 -0.32614,-0.11586 -0.05537,-0.03082 -0.819043,-0.779683 -2.129496,-2.088209 l -2.043165,-2.040161 -0.182255,0.125472 C 8.8263018,12.775381 7.169943,13.15804 5.5572361,12.921345 4.4126906,12.753361 3.3345237,12.281385 2.4172662,11.546799 2.0103601,11.220928 1.5252506,10.702699 1.2070118,10.253919 0.42819081,9.1556257 0.0099882,7.8453805 0.0099882,6.5035971 0.0099882,4.0623847 1.38333,1.8245694 3.558753,0.72100157 5.2902649,-0.15737517 7.2956357,-0.221242 9.0743405,0.54534172 10.308344,1.0771708 11.38421,2.0214387 12.070205,3.174757 c 1.300751,2.1868654 1.210211,4.9300507 -0.231444,7.012293 l -0.10626,0.153478 2.030323,2.033573 c 1.116678,1.118465 2.048969,2.061032 2.071758,2.094592 0.072,0.106027 0.137678,0.310642 0.149044,0.46432 0.03519,0.47573 -0.293298,0.917248 -0.765204,1.028511 -0.113694,0.02681 -0.273073,0.03338 -0.379093,0.01563 z M 7.135582,11.970983 C 8.1485211,11.852493 9.079581,11.469303 9.9088729,10.829599 10.143333,10.64874 10.64874,10.143333 10.829599,9.9088729 11.469303,9.079581 11.852493,8.1485211 11.970983,7.135582 c 0.03809,-0.3256206 0.0376,-0.94114 -0.001,-1.2746707 C 11.782196,4.2390396 10.8945,2.7998882 9.5251799,1.897368 8.8187482,1.4317582 8.0626087,1.1516072 7.1942446,1.0337527 6.8907804,0.99256645 6.1596482,0.98716462 5.8705036,1.0239725 4.8170607,1.1580747 3.8732741,1.5515817 3.059952,2.1958176 2.8224077,2.3839776 2.3927894,2.8103317 2.2085337,3.0407674 1.1388865,4.3784996 0.74664752,6.1290377 1.1446151,7.7889688 1.498162,9.2636201 2.4477007,10.527275 3.774305,11.288584 c 0.6183657,0.354866 1.3472426,0.594938 2.0674216,0.680951 0.3070558,0.03667 0.9862304,0.03743 1.2938554,0.0014 z"
     id="path182" />
</svg>
