<?xml version="1.0" encoding="UTF-8" standalone="no"?>
<svg
   width="16"
   height="16"
   fill="currentColor"
   class="bi bi-arrow-left-circle-fill"
   viewBox="0 0 16 16"
   version="1.1"
   id="svg49"
   sodipodi:docname="arrow-left-circle-fill.svg"
   inkscape:version="1.1.2 (0a00cf5, 2022-02-04)"
   xmlns:inkscape="http://www.inkscape.org/namespaces/inkscape"
   xmlns:sodipodi="http://sodipodi.sourceforge.net/DTD/sodipodi-0.dtd"
   xmlns="http://www.w3.org/2000/svg"
   xmlns:svg="http://www.w3.org/2000/svg">
  <defs
     id="defs53" />
  <sodipodi:namedview
     id="namedview51"
     pagecolor="#505050"
     bordercolor="#eeeeee"
     borderopacity="1"
     inkscape:pageshadow="0"
     inkscape:pageopacity="0"
     inkscape:pagecheckerboard="0"
     showgrid="false"
     inkscape:zoom="52.125"
     inkscape:cx="7.9904077"
     inkscape:cy="8"
     inkscape:window-width="1920"
     inkscape:window-height="1043"
     inkscape:window-x="1920"
     inkscape:window-y="0"
     inkscape:window-maximized="1"
     inkscape:current-layer="svg49" />
  <path
     d="M8 0a8 8 0 1 0 0 16A8 8 0 0 0 8 0zm3.5 7.5a.5.5 0 0 1 0 1H5.707l2.147 2.146a.5.5 0 0 1-.708.708l-3-3a.5.5 0 0 1 0-.708l3-3a.5.5 0 1 1 .708.708L5.707 7.5H11.5z"
     id="path47" />
  <path
     style="fill:#ffffff;stroke-width:0.0191847"
     d="M 7.4244604,15.969379 C 5.9021725,15.856695 4.4307756,15.305675 3.2174078,14.393888 1.7921163,13.322851 0.78860058,11.855799 0.29995273,10.128823 0.06608877,9.3023027 -0.03240527,8.326941 0.02976659,7.4532374 0.14882966,5.7800393 0.76503413,4.2367016 1.8451406,2.9064748 2.034075,2.6737888 2.6691052,2.0390678 2.9064748,1.8456574 4.0816756,0.88809521 5.451072,0.28658893 6.9088992,0.08759573 9.1250097,-0.21490306 11.330826,0.40801118 13.074341,1.8286932 c 0.257639,0.2099349 0.865825,0.8167656 1.080188,1.0777816 2.015975,2.4547281 2.404484,5.83719 0.993799,8.6522782 -0.38456,0.767409 -0.831444,1.396918 -1.421403,2.002281 -0.646748,0.663636 -1.307068,1.150513 -2.126034,1.5676 -1.268304,0.645929 -2.7577303,0.945761 -4.1764306,0.840745 z m 0.2877698,-4.50463 c 0.095219,-0.04418 0.1916399,-0.138646 0.2456988,-0.240712 0.05523,-0.104279 0.057868,-0.330813 0.00515,-0.442262 C 7.93893,10.730725 7.5603661,10.337477 6.8321209,9.606955 l -1.0946588,-1.0980809 2.953811,-0.00504 2.9538109,-0.00504 0.07932,-0.042425 C 11.911447,8.3563323 11.999157,8.2106436 11.999157,8 c 0,-0.2106436 -0.08771,-0.3563323 -0.274755,-0.4563764 L 11.645084,7.501199 8.6912727,7.4961625 5.7374617,7.4911259 6.8321205,6.393045 C 7.5603657,5.6625234 7.9389297,5.2692775 7.9630786,5.2182254 8.0157968,5.1067758 8.0131591,4.8802415 7.957929,4.7759634 7.9038701,4.6738968 7.8074488,4.5794323 7.7122302,4.5352506 7.6048271,4.4854153 7.3951185,4.4869652 7.2805755,4.5384409 7.2137951,4.568452 6.8414176,4.9300416 5.6362375,6.1351419 3.9265218,7.8447442 3.9976019,7.7638511 3.9976019,8 c 0,0.2361489 -0.07108,0.1552558 1.6386356,1.8648581 1.2051801,1.2050999 1.5775576,1.5666899 1.644338,1.5967009 0.114543,0.05148 0.3242516,0.05303 0.4316547,0.0032 z"
     id="path172" />
</svg>
